<?xml version="1.0" encoding="utf-8"?>
<!-- Generator: Adobe Illustrator 24.1.2, SVG Export Plug-In . SVG Version: 6.00 Build 0)  -->
<svg version="1.1" xmlns="http://www.w3.org/2000/svg" xmlns:xlink="http://www.w3.org/1999/xlink" x="0px" y="0px"
	 viewBox="0 0 1200 1200" style="enable-background:new 0 0 1200 1200;" xml:space="preserve">
<style type="text/css">
	.st0{fill:#F2F2F2;}
	.st1{fill:#333333;}
</style>
<g id="Layer_1">
	<rect id="XMLID_129_" x="0" y="0" class="st0" width="1200" height="1200"/>
</g>
<g id="Layer_2">
	<g id="XMLID_19_">
		<path id="XMLID_63_" class="st1" d="M714.92,703.86h61.3L598.71,348.84l-48.01,96.01l-1.92,0.94l0.72,1.46l-128.3,256.6h58.57
			L556.4,550.6l9.47,18.94l-66.31,134.32h62.09l35.69-71.38l35.69,71.38h61.52l-65.88-134.03l9.61-19.23L714.92,703.86z
			 M627.57,444.56l-30.3,61.38l-28.81-58.61l30.25-60.49L627.57,444.56z M556.4,512.6l-87.13,174.26h-20.58l110.22-220.45
			l28.87,58.74l-12.47,25.27L556.4,512.6z M551.15,686.87H526.9l110.21-223.24l111.62,223.24h-23.31L638.29,512.6L551.15,686.87z
			 M667.27,686.87h-23.73l-36.69-73.39l12.28-24.56L667.27,686.87z"/>
	</g>
</g>
</svg>
